<svg xmlns="http://www.w3.org/2000/svg" viewBox="0 0 64 64">
  <defs>
    <linearGradient id="g" x1="0" x2="1" y1="0" y2="1">
      <stop offset="0%" stop-color="#6366F1"/>
      <stop offset="100%" stop-color="#22D3EE"/>
    </linearGradient>
  </defs>
  <rect width="64" height="64" rx="12" fill="url(#g)"/>
  <g fill="#fff" transform="translate(8,8)">
    <path d="M24 4a2 2 0 0 1 3.46-1.24l5.3 5.3a2 2 0 0 1 0 2.83l-9.9 9.9a6 6 0 1 1-2.83-2.83l6.04-6.04-1.77-1.77A2 2 0 0 1 24 8V4z" opacity=".95"/>
    <path d="M20 32a2 2 0 0 1-3.46 1.24l-5.3-5.3a2 2 0 0 1 0-2.83l9.9-9.9a6 6 0 1 1 2.83 2.83l-6.04 6.04 1.77 1.77A2 2 0 0 1 20 28v4z" opacity=".95"/>
  </g>
</svg>
